<?xml version="1.0" encoding="iso-8859-1"?>
<!DOCTYPE svg PUBLIC "-//W3C//DTD SVG 20000303 Stylable//EN"
"http://www.w3.org/TR/2000/03/WD-SVG-20000303/DTD/svg-20000303-stylable.dtd">

<svg width="6.0820in" height="0.8402in" viewBox="0 0 999 138">

<path style="fill:#2a363b" d="M911,2 l1,5 18,-2 -1,-5 -18,1 0,1 0,-1 0,1 0,0 -1,0 0,0 0,0 -1,1 0,0 0,1 0,0 0,1 0,0 0,1 0,0 1,1 0,0 0,0 0,0 1,0 0,0 0,0 1,0 0,0z" />
<path style="fill:#2a363b" d="M895,7 l3,6 15,-6 -2,-5 -15,5 -1,0 1,0 0,0 -1,0 0,0 0,1 -1,0 0,1 0,0 0,1 0,0 0,1 0,0 1,1 0,0 0,0 1,1 0,0 0,0 1,0 0,0 0,0 1,0 0,0z" />
<path style="fill:#2a363b" d="M883,16 l3,5 13,-9 -4,-5 -12,9 0,0 0,0 0,0 0,0 -1,0 0,1 0,0 0,0 0,0 0,1 0,0 0,1 0,0 0,1 1,0 0,1 1,0 0,0 0,0 1,0 0,0 0,0 0,0 1,0 0,0 0,0z" />
<path style="fill:#2a363b" d="M873,27 l4,4 10,-11 -4,-4 -10,11 0,0 0,0 0,0 0,0 -1,1 0,0 0,0 0,0 0,1 0,0 0,1 1,0 0,1 0,0 1,0 0,0 1,1 0,0 1,0 0,0 0,0 0,-1 1,0 0,0 0,0 0,0z" />
<path style="fill:#2a363b" d="M866,40 l5,3 7,-13 -5,-3 -7,13 0,0 0,0 0,0 0,0 0,1 0,0 0,1 0,0 0,1 0,0 1,0 0,1 1,0 0,0 1,0 0,0 1,0 0,0 1,-1 0,0 0,0 0,0z" />
<path style="fill:#2a363b" d="M862,54 l5,1 4,-13 -5,-2 -4,14 0,0 0,0 0,0 -1,0 0,1 0,0 1,0 0,1 0,0 0,0 0,1 1,0 0,0 1,0 0,1 1,0 0,-1 1,0 0,0 1,0 0,-1 0,0 0,0 0,-1z" />
<path style="fill:#2a363b" d="M860,69 l6,0 1,-14 -5,-1 -2,14 0,1 0,-1 0,1 0,0 0,0 0,1 1,0 0,1 0,0 1,0 0,1 1,0 0,0 1,0 1,-1 0,0 0,0 1,-1 0,0 0,0 0,-1 0,0z" />
<path style="fill:#2a363b" d="M862,84 l5,-1 -1,-15 -6,1 2,14 0,1 0,-1 0,0 0,1 0,0 0,0 0,1 0,0 0,0 1,0 0,1 1,0 0,0 1,0 0,0 1,0 0,-1 1,0 0,-1 0,0 0,0 0,-1 0,0 0,0z" />
<path style="fill:#2a363b" d="M866,98 l5,-3 -4,-13 -5,2 4,13 0,1 0,-1 0,1 0,0 0,0 0,0 1,1 0,0 1,0 0,0 1,0 0,0 1,0 0,0 1,-1 0,0 0,-1 0,0 1,-1 -1,0 0,0 0,-1z" />
<path style="fill:#2a363b" d="M873,111 l5,-4 -7,-12 -5,3 7,12 0,1 0,-1 0,0 0,1 0,0 1,0 0,0 0,1 1,0 1,0 0,0 1,-1 0,0 0,0 1,-1 0,0 0,-1 0,0 0,-1 0,0 0,0 0,-1z" />
<path style="fill:#2a363b" d="M883,122 l4,-5 -10,-10 -4,4 10,10 0,1 0,-1 0,1 0,0 0,0 1,0 0,0 0,0 0,0 1,0 0,0 1,0 0,0 1,0 0,-1 0,0 1,-1 0,0 0,-1 0,-1 -1,0 0,0 0,0 0,-1z" />
<path style="fill:#2a363b" d="M896,130 l3,-5 -13,-8 -3,5 12,8 1,0 -1,0 1,0 0,0 0,0 0,1 1,0 0,0 0,0 1,0 0,-1 1,0 0,0 0,-1 1,0 0,-1 0,0 0,-1 0,0 0,-1 -1,0 0,0 0,-1 0,0z" />
<path style="fill:#2a363b" d="M911,136 l2,-6 -15,-5 -2,5 15,6 0,0 0,0 0,0 0,0 1,0 0,0 1,0 0,0 1,-1 0,0 0,-1 1,0 0,-1 0,0 0,-1 0,0 -1,-1 0,0 0,0 -1,-1 0,0 0,0z" />
<path style="fill:#2a363b" d="M930,138 l0,-6 -18,-2 -1,6 18,2 1,0 -1,0 0,0 1,0 0,0 0,0 1,-1 0,0 1,0 0,-1 0,0 0,-1 0,0 0,-1 0,-1 0,0 -1,0 0,-1 0,0 -1,0 0,0 0,0z" />
<path style="fill:#2a363b" d="M948,136 l-1,-6 -18,2 1,6 17,-2 1,0 -1,0 1,0 0,0 0,0 0,-1 1,0 0,0 1,-1 0,0 0,-1 0,0 0,-1 0,0 -1,-1 0,0 -1,-1 0,0 0,0 -1,0 0,0 0,0z" />
<path style="fill:#2a363b" d="M963,130 l-2,-5 -15,5 2,6 15,-6 0,0 0,0 0,0 0,0 1,0 0,0 0,-1 0,0 1,-1 0,0 0,-1 -1,0 0,-1 0,0 0,-1 -1,0 0,0 -1,0 0,0 -1,0 0,0 0,0z" />
<path style="fill:#2a363b" d="M976,121 l-4,-4 -12,8 3,5 13,-8 0,-1 0,1 0,0 0,-1 0,0 1,0 0,-1 0,0 0,-1 0,0 0,-1 -1,0 0,-1 0,0 -1,0 0,-1 -1,0 0,0 -1,0 0,1 0,0 -1,0z" />
<path style="fill:#2a363b" d="M986,110 l-5,-3 -9,10 4,4 10,-10 0,-1 0,1 0,-1 0,0 0,0 0,0 0,-1 0,-1 0,0 0,-1 0,0 -1,-1 0,0 -1,0 0,0 -1,0 0,0 -1,0 0,0 0,0 -1,0 0,1z" />
<path style="fill:#2a363b" d="M993,97 l-5,-2 -7,12 5,3 7,-12 0,-1 0,1 0,-1 0,0 0,0 0,-1 0,0 0,-1 0,0 -1,-1 0,0 0,0 -1,0 -1,-1 0,0 -1,0 0,1 -1,0 0,0 0,0 0,1 0,0z" />
<path style="fill:#2a363b" d="M997,83 l-6,-1 -4,13 6,2 4,-13 0,-1 0,1 0,-1 0,0 0,0 0,-1 0,0 0,-1 -1,0 0,-1 0,0 -1,0 -1,0 0,0 -1,0 0,0 -1,0 0,1 0,0 0,0 -1,1 0,0z" />
<path style="fill:#2a363b" d="M999,68 l-6,0 -2,15 6,0 2,-14 0,-1 0,1 0,0 0,-1 -1,0 0,0 0,-1 0,0 -1,-1 0,0 -1,0 0,0 -1,0 0,0 -1,0 0,0 -1,1 0,0 0,0 0,1 0,0 0,0z" />
<path style="fill:#2a363b" d="M997,54 l-6,1 2,14 6,-1 -2,-14 0,0 0,0 0,0 0,0 0,-1 0,0 -1,0 0,-1 0,0 -1,0 -1,0 0,0 -1,0 0,0 -1,0 0,1 0,0 -1,1 0,0 0,0 0,1 0,0z" />
<path style="fill:#2a363b" d="M993,40 l-6,2 4,14 6,-2 -4,-14 0,0 0,0 0,0 0,0 0,-1 -1,0 0,0 -1,-1 0,0 -1,0 0,0 -1,0 0,0 -1,1 0,0 0,1 -1,0 0,1 0,0 0,0 0,1 0,0z" />
<path style="fill:#2a363b" d="M986,27 l-5,3 7,13 5,-3 -7,-13 0,0 0,0 0,0 0,0 -1,-1 0,0 0,0 -1,0 0,0 -1,0 -1,0 0,0 -1,0 0,1 0,0 0,1 -1,0 0,1 0,0 0,0 1,1 0,0z" />
<path style="fill:#2a363b" d="M976,16 l-4,4 9,11 5,-4 -10,-11 0,0 0,0 0,0 0,0 -1,-1 0,0 0,0 -1,0 -1,0 0,0 -1,1 0,0 0,0 -1,1 0,0 0,1 0,0 0,0 0,1 0,0 0,0 0,0 1,1 0,0z" />
<path style="fill:#2a363b" d="M963,7 l-3,5 12,9 4,-5 -13,-9 0,0 0,0 0,0 0,0 0,0 -1,0 0,0 -1,0 0,0 -1,0 0,1 -1,0 0,1 0,0 0,1 0,0 0,0 0,1 0,0 0,0 0,1 1,0 0,0 0,0z" />
<path style="fill:#2a363b" d="M947,1 l-1,6 15,6 2,-6 -15,-5 -1,-1 1,1 0,0 -1,-1 0,0 0,0 -1,1 -1,0 0,0 0,0 -1,1 0,0 0,1 0,1 0,0 0,1 0,0 0,0 1,0 0,1 0,0 0,0 1,0 0,0z" />
<path style="fill:#2a363b" d="M929,0 l0,5 18,2 0,-6 -17,-1 -1,0 1,0 -1,0 0,0 0,0 -1,0 0,0 -1,0 0,1 0,0 0,1 -1,0 0,1 1,0 0,1 0,0 0,0 0,1 1,0 0,0 0,0 0,0 1,0 0,0z" />
<path style="fill:#2a363b" d="M996,0 l-994,0 0,5 994,0z" />
<path style="fill:#2a363b" d="M50,2 l1,5 18,-2 -1,-5 -17,1 -1,1 1,-1 -1,1 0,0 0,0 0,0 -1,0 0,1 -1,0 0,1 0,0 0,1 0,0 0,1 1,0 0,1 0,0 1,0 0,0 0,0 0,0 1,0 0,0 0,0z" />
<path style="fill:#2a363b" d="M35,7 l2,6 15,-6 -2,-5 -15,5 0,0 0,0 0,0 0,0 -1,0 0,1 0,0 -1,1 0,0 0,1 0,0 0,1 1,0 0,1 0,0 1,0 0,1 0,0 1,0 0,0 0,0 1,0 0,0 0,0z" />
<path style="fill:#2a363b" d="M22,16 l4,5 12,-9 -3,-5 -13,9 0,0 0,0 0,0 0,0 0,0 -1,1 0,0 0,0 0,0 0,1 0,0 0,1 0,0 1,1 0,0 0,1 1,0 0,0 1,0 0,0 0,0 0,0 1,0 0,0 0,0 1,0z" />
<path style="fill:#2a363b" d="M12,27 l5,4 9,-11 -4,-4 -10,11 0,0 0,0 0,0 0,0 0,1 0,0 0,0 0,0 0,1 0,0 0,1 0,0 0,1 1,0 0,0 1,1 0,0 1,0 0,0 0,0 1,0 0,-1 0,0 0,0 1,0 0,0z" />
<path style="fill:#2a363b" d="M5,40 l5,3 7,-13 -5,-3 -7,13 0,0 0,0 0,0 0,0 0,1 0,0 0,1 0,0 0,1 1,0 0,0 0,1 1,0 1,0 0,0 1,0 0,0 1,0 0,-1 0,0 0,0 0,0z" />
<path style="fill:#2a363b" d="M1,54 l6,1 4,-13 -6,-2 -4,14 0,0 0,0 0,0 0,0 0,1 0,0 0,0 0,1 0,0 0,0 1,1 0,0 0,0 1,0 1,1 0,0 1,-1 0,0 1,0 0,0 0,-1 0,0 1,0 0,-1z" />
<path style="fill:#2a363b" d="M0,69 l5,0 2,-14 -6,-1 -1,14 0,1 0,-1 0,1 0,0 0,0 0,1 0,0 0,0 0,0 0,1 1,0 0,0 1,1 0,0 1,0 0,0 1,-1 0,0 1,0 0,-1 0,0 0,0 0,-1 0,0z" />
<path style="fill:#2a363b" d="M1,84 l6,-1 -2,-15 -5,1 1,14 0,1 0,-1 0,0 0,1 0,0 0,0 1,1 0,0 0,1 1,0 1,0 0,0 1,0 0,0 1,-1 0,0 0,-1 1,0 0,0 0,-1 0,0 0,0z" />
<path style="fill:#2a363b" d="M5,98 l6,-3 -4,-13 -6,2 4,13 0,1 0,-1 0,1 0,0 0,0 1,0 0,1 1,0 0,0 1,0 0,0 1,0 0,0 1,0 0,-1 0,0 1,-1 0,0 0,-1 0,0 0,0 0,-1z" />
<path style="fill:#2a363b" d="M12,111 l5,-4 -7,-12 -5,3 7,12 0,1 0,-1 0,0 0,1 1,0 0,0 0,0 1,1 0,0 1,0 1,0 0,-1 1,0 0,0 0,-1 0,0 1,-1 0,0 0,-1 0,0 -1,0 0,-1z" />
<path style="fill:#2a363b" d="M22,122 l4,-5 -9,-10 -5,4 10,10 0,1 0,-1 0,1 0,0 1,0 0,0 0,0 0,0 1,0 0,0 1,0 0,0 1,0 0,0 0,-1 1,0 0,-1 0,0 0,-1 0,-1 0,0 0,0 -1,0 0,-1z" />
<path style="fill:#2a363b" d="M35,130 l3,-5 -12,-8 -4,5 13,8 0,0 0,0 0,0 0,0 0,0 1,1 0,0 0,0 1,0 0,0 0,-1 1,0 0,0 1,-1 0,0 0,-1 0,0 0,-1 0,0 0,-1 0,0 -1,0 0,-1 0,0z" />
<path style="fill:#2a363b" d="M51,136 l1,-6 -15,-5 -2,5 15,6 1,0 -1,0 0,0 1,0 0,0 0,0 1,0 1,0 0,-1 0,0 1,-1 0,0 0,-1 0,0 0,-1 0,0 0,-1 -1,0 0,0 0,-1 -1,0 0,0z" />
<path style="fill:#2a363b" d="M69,138 l0,-6 -18,-2 0,6 17,2 1,0 -1,0 1,0 0,0 0,0 1,0 0,-1 1,0 0,0 0,-1 1,0 0,-1 0,0 0,-1 -1,-1 0,0 0,0 -1,-1 0,0 0,0 -1,0 0,0z" />
<path style="fill:#2a363b" d="M87,136 l-1,-6 -18,2 1,6 18,-2 0,0 0,0 0,0 0,0 1,0 0,-1 0,0 1,0 0,-1 0,0 0,-1 0,0 0,-1 0,0 0,-1 -1,0 0,-1 -1,0 0,0 0,0 -1,0 0,0z" />
<path style="fill:#2a363b" d="M103,130 l-3,-5 -15,5 2,6 15,-6 1,0 -1,0 0,0 1,0 0,0 0,0 1,-1 0,0 0,-1 0,0 0,-1 0,0 0,-1 -1,0 0,-1 -1,0 0,0 -1,0 0,0 0,0 -1,0 0,0z" />
<path style="fill:#2a363b" d="M116,121 l-4,-4 -13,8 4,5 12,-8 1,-1 -1,1 0,0 0,-1 1,0 0,0 0,-1 0,0 0,-1 0,0 0,-1 0,0 -1,-1 0,0 -1,0 0,-1 -1,0 0,0 0,0 -1,1 0,0 0,0z" />
<path style="fill:#2a363b" d="M125,110 l-5,-3 -9,10 5,4 9,-10 0,-1 0,1 0,-1 0,0 0,0 1,0 0,-1 0,-1 0,0 -1,-1 0,0 0,-1 -1,0 0,0 -1,0 0,0 -1,0 0,0 -1,0 0,0 0,0 -1,1z" />
<path style="fill:#2a363b" d="M132,97 l-5,-2 -7,12 5,3 7,-12 0,-1 0,1 0,-1 0,0 0,0 0,-1 0,0 0,-1 0,0 0,-1 -1,0 0,0 -1,-1 0,0 -1,0 0,0 -1,1 0,0 -1,0 0,0 0,1 0,0z" />
<path style="fill:#2a363b" d="M136,83 l-5,-1 -4,13 5,2 4,-13 0,-1 0,1 0,-1 0,0 0,0 0,-1 0,0 0,-1 0,0 -1,-1 0,0 -1,0 0,0 -1,0 0,0 -1,0 0,0 -1,1 0,0 0,0 0,1 0,0z" />
<path style="fill:#2a363b" d="M138,68 l-6,0 -2,15 6,0 2,-14 0,-1 0,1 0,0 0,-1 0,0 0,0 0,-1 -1,0 0,-1 -1,0 0,0 -1,0 0,0 -1,0 0,0 -1,0 0,1 -1,0 0,0 0,1 0,0 0,0z" />
<path style="fill:#2a363b" d="M136,54 l-6,1 2,14 6,-1 -2,-14 0,0 0,0 0,0 0,0 0,-1 0,0 0,0 -1,-1 0,0 -1,0 0,0 -1,0 0,0 -1,0 0,0 -1,1 0,0 0,1 0,0 -1,0 0,1 0,0z" />
<path style="fill:#2a363b" d="M132,40 l-5,2 4,13 5,-1 -4,-14 0,0 0,0 0,0 0,0 0,-1 0,0 -1,0 0,-1 -1,0 0,0 -1,0 0,0 -1,0 0,1 -1,0 0,1 0,0 0,1 -1,0 1,0 0,1 0,0z" />
<path style="fill:#2a363b" d="M125,27 l-5,3 7,13 5,-3 -7,-13 0,0 0,0 0,0 0,0 0,-1 -1,0 0,0 -1,0 0,0 -1,0 0,0 -1,0 0,0 -1,1 0,0 0,1 0,0 0,1 0,0 0,0 0,1 0,0z" />
<path style="fill:#2a363b" d="M115,16 l-4,4 9,11 5,-4 -9,-11 -1,0 1,0 -1,0 0,0 0,-1 -1,0 0,0 -1,0 0,0 -1,0 0,1 -1,0 0,0 0,1 -1,0 0,1 0,0 0,0 0,1 0,0 1,0 0,0 0,1 0,0z" />
<path style="fill:#2a363b" d="M102,7 l-2,5 12,9 3,-5 -12,-9 -1,0 1,0 0,0 -1,0 0,0 0,0 -1,0 0,0 -1,0 0,0 -1,1 0,0 -1,1 0,0 0,1 0,0 0,0 0,1 0,0 1,0 0,1 0,0 0,0 1,0z" />
<path style="fill:#2a363b" d="M87,1 l-2,6 15,6 2,-6 -15,-5 0,-1 0,1 0,0 0,-1 -1,0 0,0 -1,1 0,0 -1,0 0,0 0,1 -1,0 0,1 0,1 0,0 0,1 1,0 0,0 0,0 0,1 0,0 1,0 0,0 0,0z" />
<path style="fill:#2a363b" d="M68,0 l0,5 18,2 1,-6 -18,-1 -1,0 1,0 0,0 -1,0 0,0 0,0 -1,0 0,0 -1,1 0,0 0,1 0,0 0,1 0,0 0,1 0,0 0,0 1,1 0,0 0,0 0,0 1,0 0,0 0,0z" />
<path style="fill:#2a363b" d="M480,2 l2,5 17,-2 0,-5 -18,1 -1,1 1,-1 0,1 -1,0 0,0 0,0 -1,0 0,1 0,0 0,1 -1,0 0,1 1,0 0,1 0,0 0,1 1,0 0,0 0,0 0,0 1,0 0,0 0,0 1,0z" />
<path style="fill:#2a363b" d="M465,7 l3,6 14,-6 -2,-5 -14,5 -1,0 1,0 -1,0 0,0 0,0 -1,1 0,0 0,1 0,0 0,1 0,0 0,1 0,0 0,1 1,0 0,0 0,1 1,0 0,0 0,0 1,0 0,0 0,0 1,0z" />
<path style="fill:#2a363b" d="M452,16 l4,5 12,-9 -3,-5 -12,9 -1,0 1,0 -1,0 0,0 0,0 0,1 0,0 0,0 -1,0 0,1 0,0 0,1 1,0 0,1 0,0 1,1 0,0 1,0 0,0 0,0 1,0 0,0 0,0 0,0 1,0 0,0z" />
<path style="fill:#2a363b" d="M442,27 l5,4 10,-11 -5,-4 -9,11 -1,0 1,0 0,0 -1,0 0,1 0,0 0,0 0,0 0,1 0,0 0,1 0,0 1,1 0,0 0,0 1,1 0,0 1,0 0,0 1,0 0,0 0,-1 0,0 1,0 0,0 0,0z" />
<path style="fill:#2a363b" d="M435,40 l6,3 7,-13 -6,-3 -6,13 -1,0 1,0 -1,0 0,0 0,1 0,0 0,1 0,0 1,1 0,0 0,0 1,1 0,0 1,0 0,0 1,0 0,0 1,0 0,-1 0,0 1,0 0,0z" />
<path style="fill:#2a363b" d="M431,54 l6,1 4,-13 -6,-2 -4,14 0,0 0,0 0,0 0,0 0,1 0,0 0,0 0,1 0,0 1,0 0,1 0,0 1,0 0,0 1,1 0,0 1,-1 1,0 0,0 0,0 1,-1 0,0 0,0 0,-1z" />
<path style="fill:#2a363b" d="M430,69 l6,0 1,-14 -6,-1 -1,14 0,1 0,-1 0,1 0,0 0,0 0,1 0,0 0,0 0,0 1,1 0,0 0,0 1,1 1,0 0,0 1,0 0,-1 1,0 0,0 0,-1 1,0 0,0 0,-1 0,0z" />
<path style="fill:#2a363b" d="M431,84 l6,-1 -1,-15 -6,1 1,14 0,1 0,-1 0,0 0,1 1,0 0,0 0,1 0,0 1,1 0,0 1,0 0,0 1,0 1,0 0,-1 0,0 1,-1 0,0 0,0 0,-1 0,0 0,0z" />
<path style="fill:#2a363b" d="M436,98 l5,-3 -4,-13 -6,2 4,13 1,1 -1,-1 0,1 1,0 0,0 0,0 0,1 0,0 1,0 0,0 0,0 1,0 0,0 1,0 0,0 1,0 0,-1 1,0 0,-1 0,0 0,-1 0,0 0,0 0,-1z" />
<path style="fill:#2a363b" d="M443,111 l5,-4 -7,-12 -5,3 6,12 1,1 -1,-1 1,0 0,1 0,0 0,0 1,0 0,1 1,0 0,0 1,0 0,-1 1,0 0,0 1,-1 0,0 0,-1 0,0 0,-1 0,0 0,0 0,-1z" />
<path style="fill:#2a363b" d="M453,122 l4,-5 -10,-10 -4,4 9,10 1,1 -1,-1 0,1 1,0 0,0 0,0 0,0 1,0 0,0 0,0 1,0 0,0 1,0 0,0 1,-1 0,0 0,-1 0,0 0,-1 0,-1 0,0 0,0 0,0 0,-1z" />
<path style="fill:#2a363b" d="M466,130 l2,-5 -12,-8 -3,5 12,8 1,0 -1,0 0,0 1,0 0,0 0,1 0,0 1,0 0,0 0,0 1,-1 0,0 1,0 0,-1 0,0 0,-1 1,0 0,-1 -1,0 0,-1 0,0 0,0 0,-1 -1,0z" />
<path style="fill:#2a363b" d="M481,136 l1,-6 -14,-5 -2,5 14,6 1,0 -1,0 1,0 0,0 0,0 1,0 0,0 1,0 0,-1 1,0 0,-1 0,0 0,-1 0,0 0,-1 0,0 0,-1 0,0 -1,0 0,-1 0,0 -1,0z" />
<path style="fill:#2a363b" d="M499,138 l0,-6 -17,-2 -1,6 18,2 0,0 0,0 0,0 0,0 1,0 0,0 1,-1 0,0 0,0 1,-1 0,0 0,-1 0,0 0,-1 0,-1 -1,0 0,0 0,-1 -1,0 0,0 0,0 -1,0z" />
<path style="fill:#2a363b" d="M518,136 l-2,-6 -17,2 0,6 18,-2 1,0 -1,0 0,0 1,0 0,0 0,-1 1,0 0,0 0,-1 0,0 1,-1 0,0 -1,-1 0,0 0,-1 0,0 -1,-1 0,0 -1,0 0,0 0,0 -1,0z" />
<path style="fill:#2a363b" d="M533,130 l-3,-5 -14,5 2,6 14,-6 1,0 -1,0 1,0 0,0 0,0 1,0 0,-1 0,0 0,-1 0,0 0,-1 0,0 0,-1 0,0 -1,-1 0,0 -1,0 0,0 -1,0 0,0 0,0 -1,0z" />
<path style="fill:#2a363b" d="M546,121 l-4,-4 -12,8 3,5 12,-8 1,-1 -1,1 1,0 0,-1 0,0 0,0 0,-1 1,0 0,-1 0,0 -1,-1 0,0 0,-1 -1,0 0,0 -1,-1 0,0 -1,0 0,0 0,1 -1,0 0,0z" />
<path style="fill:#2a363b" d="M556,110 l-5,-3 -10,10 5,4 9,-10 1,-1 -1,1 0,-1 1,0 0,0 0,0 0,-1 0,-1 0,0 0,-1 -1,0 0,-1 0,0 -1,0 0,0 -1,0 -1,0 0,0 0,0 -1,0 0,0 0,1z" />
<path style="fill:#2a363b" d="M563,97 l-6,-2 -7,12 6,3 6,-12 1,-1 -1,1 0,-1 1,0 0,0 0,-1 0,0 0,-1 -1,0 0,-1 0,0 -1,0 0,0 -1,-1 0,0 -1,0 0,1 -1,0 0,0 0,0 -1,1 0,0z" />
<path style="fill:#2a363b" d="M567,83 l-6,-1 -4,13 6,2 4,-13 0,-1 0,1 0,-1 0,0 0,0 0,-1 0,0 -1,-1 0,0 0,-1 -1,0 0,0 -1,0 0,0 -1,0 -1,0 0,0 0,1 -1,0 0,0 0,1 0,0z" />
<path style="fill:#2a363b" d="M568,68 l-6,0 -1,15 6,0 1,-14 0,-1 0,1 0,0 0,-1 0,0 0,0 0,-1 -1,0 0,-1 0,0 -1,0 -1,0 0,0 -1,0 0,0 -1,0 0,1 0,0 -1,0 0,1 0,0 0,0z" />
<path style="fill:#2a363b" d="M567,54 l-6,1 1,14 6,-1 -1,-14 0,0 0,0 0,0 0,0 -1,-1 0,0 0,0 0,-1 -1,0 0,0 -1,0 -1,0 0,0 -1,0 0,0 0,1 -1,0 0,1 0,0 0,0 0,1 0,0z" />
<path style="fill:#2a363b" d="M562,40 l-5,2 4,14 6,-2 -4,-14 -1,0 1,0 -1,0 0,0 0,-1 0,0 0,0 -1,-1 0,0 -1,0 -1,0 0,0 -1,0 0,1 0,0 -1,1 0,0 0,1 0,0 0,0 0,1 0,0z" />
<path style="fill:#2a363b" d="M555,27 l-5,3 7,13 5,-3 -6,-13 -1,0 1,0 -1,0 0,0 0,-1 0,0 -1,0 0,0 -1,0 0,0 -1,0 0,0 -1,0 0,1 -1,0 0,1 0,0 0,1 0,0 0,0 0,1 0,0z" />
<path style="fill:#2a363b" d="M545,16 l-4,4 10,11 4,-4 -9,-11 -1,0 1,0 0,0 -1,0 0,-1 0,0 -1,0 0,0 -1,0 0,0 -1,1 0,0 -1,0 0,1 0,0 0,1 0,0 0,0 0,1 0,0 0,0 0,0 0,1 0,0z" />
<path style="fill:#2a363b" d="M532,7 l-2,5 12,9 3,-5 -12,-9 -1,0 1,0 0,0 -1,0 0,0 0,0 -1,0 0,0 -1,0 0,0 -1,1 0,0 0,1 0,0 -1,1 0,0 0,0 1,1 0,0 0,0 0,1 0,0 0,0 1,0z" />
<path style="fill:#2a363b" d="M517,1 l-1,6 14,6 2,-6 -14,-5 -1,-1 1,1 -1,0 0,-1 0,0 -1,0 0,1 -1,0 0,0 -1,0 0,1 0,0 0,1 0,1 0,0 0,1 0,0 0,0 0,0 0,1 1,0 0,0 0,0 1,0z" />
<path style="fill:#2a363b" d="M499,0 l0,5 17,2 1,-6 -18,-1 0,0 0,0 0,0 0,0 -1,0 0,0 0,0 -1,0 0,1 -1,0 0,1 0,0 0,1 0,0 0,1 1,0 0,0 0,1 0,0 0,0 1,0 0,0 0,0 1,0z" />

</svg>
