<?xml version="1.0" encoding="iso-8859-1"?>
<!DOCTYPE svg PUBLIC "-//W3C//DTD SVG 20000303 Stylable//EN"
"http://www.w3.org/TR/2000/03/WD-SVG-20000303/DTD/svg-20000303-stylable.dtd">

<svg width="6.0810in" height="0.8400in" viewBox="0 0 999 138">

<path style="fill:#2a363b" d="M929,0 l-860,0 0,5 860,0z" />
<path style="fill:#2a363b" d="M929,132 l-860,0 0,6 860,0z" />
<path style="fill:#2e3235" d="M957,5 l-1,0 -26,-5 -1,5 26,6 2,-6 -2,6 0,0 0,0 1,0 0,0 0,0 0,0 1,-1 0,0 0,0 1,-1 0,0 0,-1 0,0 0,-1 0,0 0,-1 -1,0 0,-1 0,0 -1,0 0,0 0,0z" />
<path style="fill:#2e3235" d="M979,20 l-1,0 -21,-15 -3,5 21,14 4,-4 -4,4 0,1 0,0 0,0 1,0 0,0 0,0 1,0 0,0 0,0 1,-1 0,0 1,0 0,-1 0,0 0,-1 0,0 0,-1 0,-1 0,0 -1,0 0,0 0,0z" />
<path style="fill:#2e3235" d="M993,42 l0,-1 -14,-21 -5,4 14,21 5,-3 -5,3 0,0 0,0 1,0 0,1 0,0 0,0 1,0 0,0 1,0 0,0 1,0 0,-1 1,0 0,0 0,-1 0,0 0,-1 0,0 0,-1 0,0 0,0 0,-1z" />
<path style="fill:#2e3235" d="M999,68 l-6,-26 -5,2 5,25z" />
<path style="fill:#2e3235" d="M993,96 l0,-1 6,-26 -6,-1 -5,26 5,2 -5,-2 -1,0 0,1 0,0 1,0 0,1 0,0 0,0 0,0 0,1 1,0 0,0 1,0 0,0 1,0 1,0 0,0 0,0 0,0 1,0 0,-1 0,0 0,0 0,-1 0,0z" />
<path style="fill:#2e3235" d="M978,118 l1,-1 14,-21 -5,-3 -14,21 4,4 -4,-4 0,0 -1,0 0,1 0,0 0,0 0,1 0,0 0,0 0,1 1,0 0,1 1,0 0,0 1,0 0,0 1,0 0,0 0,0 0,0 1,0 0,0 0,0 0,-1 1,0z" />
<path style="fill:#2e3235" d="M956,133 l1,-1 21,-14 -3,-5 -21,14 2,6 -2,-6 -1,0 0,1 0,0 0,0 -1,0 0,1 0,0 0,0 0,1 0,0 0,1 1,0 0,1 0,0 1,0 0,1 1,0 0,0 0,0 1,0 0,0 0,-1 1,0 0,0z" />
<path style="fill:#2e3235" d="M930,138 l26,-5 -1,-6 -26,5z" />
<path style="fill:#2e3235" d="M41,132 l1,1 26,5 1,-6 -25,-5 -3,5 3,-5 -1,0 0,0 -1,0 0,0 0,0 -1,0 0,1 -1,0 0,1 0,0 0,1 0,0 0,1 0,0 0,1 1,0 0,0 0,0 0,0 1,0 0,1 0,0z" />
<path style="fill:#2e3235" d="M19,117 l1,1 21,14 4,-5 -22,-14 -4,4 4,-4 0,0 0,0 0,0 -1,0 0,-1 -1,1 0,0 -1,0 0,0 -1,1 0,0 0,1 0,0 0,1 0,0 0,0 0,1 0,0 0,0 1,1 0,0 0,0z" />
<path style="fill:#2e3235" d="M5,95 l0,1 14,21 5,-3 -14,-21 -5,2 5,-2 0,0 0,-1 -1,0 0,0 0,0 -1,-1 0,0 -1,1 -1,0 0,0 0,0 -1,1 0,0 0,1 0,0 0,0 0,1 0,0 0,0 0,1 0,0 0,0z" />
<path style="fill:#2e3235" d="M0,69 l5,26 6,-1 -6,-26z" />
<path style="fill:#2e3235" d="M5,41 l0,1 -5,26 5,1 6,-25 -6,-3 6,3 0,-1 0,0 0,0 0,-1 -1,0 0,-1 0,0 -1,-1 0,0 -1,0 0,0 -1,0 0,0 -1,0 0,1 0,0 -1,0 0,0 0,0 0,1 0,0 0,0z" />
<path style="fill:#2e3235" d="M20,20 l-1,0 -14,21 5,4 14,-21 -4,-4 4,4 0,-1 1,0 0,0 0,-1 0,0 0,-1 0,0 -1,-1 0,0 -1,0 0,-1 -1,0 0,0 -1,0 0,0 -1,0 0,1 0,0 0,0 -1,0z" />
<path style="fill:#2e3235" d="M42,5 l-1,0 -21,15 3,4 22,-14 -3,-5 3,5 0,0 0,0 0,0 1,-1 0,0 0,-1 0,0 0,-1 0,0 -1,-1 0,0 0,-1 -1,0 0,0 -1,0 -1,0 0,0 0,0 0,0 -1,0z" />
<path style="fill:#2e3235" d="M68,0 l-26,5 2,6 25,-6z" />

</svg>
