<?xml version="1.0" encoding="UTF-8" standalone="no"?>
<svg
   xmlns:dc="http://purl.org/dc/elements/1.1/"
   xmlns:cc="http://creativecommons.org/ns#"
   xmlns:rdf="http://www.w3.org/1999/02/22-rdf-syntax-ns#"
   xmlns:svg="http://www.w3.org/2000/svg"
   xmlns="http://www.w3.org/2000/svg"
   version="1.1"
   width="600"
   height="600"
   id="NATO Map Symbol">
  <g
     id="ICON"
	 transform="translate(0 100)">
  <g
     id="g3848"
     transform="translate(4.4688976,13.980981)">
    <path
       style="fill:none;stroke:#000000;stroke-width:17.39164543;stroke-linecap:round;stroke-linejoin:round"
       id="path2001"
       d="m 232.18607,156.61705 c 10.26147,-11.82621 0.18615,-33.31792 -22.4775,-47.96925 -22.66947,-14.657115 -49.39931,-16.956496 -59.66078,-5.1245 -10.25565,11.82621 -0.18615,33.31792 22.48332,47.96925 22.66365,14.65134 49.39349,16.95072 59.65496,5.1245 z M 191.11693,99.768025 C 277.35631,134.23564 365.7015,277.3288 365.7015,277.3288" />
    <path
       style="fill:none;stroke:#000000;stroke-width:17.39164543;stroke-linecap:round;stroke-linejoin:round;stroke-opacity:1"
       id="path2003"
       d="m 358.87215,155.39226 c -10.26146,-11.82622 -0.18615,-33.31792 22.4775,-47.97504 22.66947,-14.651331 49.39932,-16.944935 59.66078,-5.1245 10.26147,11.82622 0.19779,33.31792 -22.48331,47.97504 -22.66947,14.65711 -49.3935,16.95649 -59.65497,5.1245 z M 399.93548,98.543229 C 313.6961,133.01662 225.36254,276.09822 225.36254,276.09822" />
    <path
       style="fill:#000000;fill-opacity:1;stroke:none"
       id="path3828"
       transform="rotate(27.294547,208.53741,122.46767)"
       d="m 238.24175,137.36484 a 41.544636,27.95895 0 1 1 -83.08927,0 41.544636,27.95895 0 1 1 83.08927,0 z" />
    <path
       style="fill:#000000;fill-opacity:1;stroke:none"
       id="path3828-1"
       transform="matrix(-0.88866088,0.45856499,0.45856499,0.88866088,512.28874,-81.204934)"
       d="m 238.24175,137.36484 a 41.544636,27.95895 0 1 1 -83.08927,0 41.544636,27.95895 0 1 1 83.08927,0 z" />
  </g>
  </g>
  <path
     d="m 452.46733,447.52131 c 19.30852,0 33.66336,-3.83989 51.50148,-11.23021 17.83823,-7.39031 34.19965,-18.32522 47.85074,-31.98034 13.65119,-13.65512 24.58141,-30.0197 31.96656,-47.86 C 591.17128,338.61045 595.00559,319.30847 595,300 c 0.006,-19.30848 -3.82872,-38.61045 -11.21389,-56.45076 -7.38515,-17.8403 -18.31537,-34.20489 -31.96656,-47.86 -13.65109,-13.65511 -30.01251,-24.59003 -47.85074,-31.98035 -17.83812,-7.39031 -32.19296,-11.23021 -51.50148,-11.23021 h -4.94604 c 0,-19.30847 -3.83989,-38.60934 -11.23021,-56.44751 C 428.90076,78.193 417.96591,61.83159 404.31075,48.18041 390.6556,34.52923 374.29102,23.59906 356.45076,16.21391 338.6104,8.82874 319.3085,4.99383 299.99998,5.00001 c -19.30852,-0.006 -38.61042,3.82873 -56.45078,11.2139 -17.84026,7.38515 -34.20484,18.31532 -47.86,31.9665 -13.65515,13.65118 -24.59,30.01259 -31.98032,47.85076 -7.39032,17.83817 -11.23021,37.13904 -11.23021,56.44751 h -4.94604 c -19.30852,0 -33.66336,3.83989 -51.501479,11.23021 -17.83823,7.39031 -34.19955,18.32521 -47.85074,31.98034 -13.65119,13.65511 -24.5814,30.0197 -31.9666,47.86 C 8.8287112,261.38954 4.9938112,280.69152 5.0000112,300 c -0.01,19.30847 3.8287,38.61045 11.2137998,56.45076 7.3852,17.8403 18.31541,34.20488 31.9666,47.86001 13.65119,13.65511 30.01251,24.59002 47.85074,31.98033 17.838119,7.39032 32.192959,11.23021 51.501479,11.23021 h 4.94604 c 0,19.30847 3.83989,38.60934 11.23021,56.44751 7.39032,17.83817 18.32517,34.19958 31.98032,47.85076 13.65516,13.65118 30.01974,24.58136 47.86,31.96651 17.84036,7.38517 37.14226,11.22008 56.45078,11.2139 19.30852,0.006 38.61042,-3.82873 56.45078,-11.2139 17.84026,-7.38515 34.20484,-18.31533 47.85999,-31.96651 13.65516,-13.65118 24.59001,-30.01259 31.98033,-47.85076 7.39032,-17.83817 11.23021,-37.13904 11.23021,-56.44751 z"
     id="Unknown Frame"
     style="fill:none;fill-opacity:1;stroke:#ffd300;stroke-width:10;stroke-linecap:butt;stroke-linejoin:miter;stroke-miterlimit:4;stroke-dasharray:none;stroke-opacity:1" />
</svg>
