<?xml version="1.0" encoding="UTF-8" standalone="no"?>
<svg
   xmlns:dc="http://purl.org/dc/elements/1.1/"
   xmlns:cc="http://creativecommons.org/ns#"
   xmlns:rdf="http://www.w3.org/1999/02/22-rdf-syntax-ns#"
   xmlns:svg="http://www.w3.org/2000/svg"
   xmlns="http://www.w3.org/2000/svg"
   version="1.1"
   width="600"
   height="600"
   id="NATO Map Symbol">
  <g
     id="ICON"
	 transform="translate(0 100)">
  <path
     id="Wheel-L"
     style="fill:none;stroke:#000000;stroke-width:10;stroke-linecap:round;stroke-linejoin:miter;stroke-miterlimit:4;stroke-dasharray:none;stroke-opacity:1"
     d="m 250.28578,344.88127 a 31.357262,31.357262 0 1 1 -62.71451,0 31.357262,31.357262 0 1 1 62.71451,0 z" />
  <path
     id="Wheel-C"
     style="fill:none;stroke:#000000;stroke-width:10;stroke-linecap:round;stroke-linejoin:miter;stroke-miterlimit:4;stroke-dasharray:none;stroke-opacity:1"
     d="m 331.35727,344.88127 a 31.357262,31.357262 0 1 1 -62.71452,0 31.357262,31.357262 0 1 1 62.71452,0 z" />
  <path
     id="Wheel-R"
     style="fill:none;stroke:#000000;stroke-width:10;stroke-linecap:round;stroke-linejoin:miter;stroke-miterlimit:4;stroke-dasharray:none;stroke-opacity:1"
     d="m 412.42874,344.88127 a 31.357262,31.357262 0 1 1 -62.71452,0 31.357262,31.357262 0 1 1 62.71452,0 z" />
  </g>
  <path
     id="Hostile Frame"
     style="fill:none;stroke:#ff0000;stroke-width:10;stroke-linecap:round;stroke-linejoin:miter;stroke-miterlimit:1.5;stroke-dasharray:none;stroke-opacity:1"
     d="M 7,300 300,7 593,300 300,593 Z" />
</svg>
