<?xml version="1.0" encoding="UTF-8" standalone="no"?>
<svg
   xmlns:dc="http://purl.org/dc/elements/1.1/"
   xmlns:cc="http://creativecommons.org/ns#"
   xmlns:rdf="http://www.w3.org/1999/02/22-rdf-syntax-ns#"
   xmlns:svg="http://www.w3.org/2000/svg"
   xmlns="http://www.w3.org/2000/svg"
   version="1.1"
   width="600"
   height="600"
   id="NATO Map Symbol">
  <g
     id="ICON"
	 transform="translate(0 100)">
  <g
     style="stroke-width:9.26577473;stroke-miterlimit:4;stroke-dasharray:none"
     id="g3834"
     transform="matrix(0.76313835,-0.76313835,0.76313835,0.76313835,-67.498813,283.56365)">
    <path
       style="fill:none;stroke:#000000;stroke-width:9.26577473;stroke-linecap:square;stroke-linejoin:miter;stroke-miterlimit:4;stroke-dasharray:none;stroke-opacity:1"
       id="path3787-7"
       d="M 295.53125,63.401974 V 95.4156" />
    <path
       style="fill:none;stroke:#000000;stroke-width:9.26577473;stroke-linecap:round;stroke-linejoin:miter;stroke-miterlimit:4;stroke-dasharray:none;stroke-opacity:1"
       id="path2987"
       d="m 380.11503,186.03125 a 84.583791,84.583791 0 1 1 -169.16757,0 84.583791,84.583791 0 1 1 169.16757,0 z" />
    <path
       style="fill:none;stroke:#000000;stroke-width:9.26577473;stroke-linecap:square;stroke-linejoin:miter;stroke-miterlimit:4;stroke-dasharray:none;stroke-opacity:1"
       id="path3787-7-8"
       d="m 295.53125,276.6469 v 32.01363" />
    <path
       style="fill:none;stroke:#000000;stroke-width:9.26577473;stroke-linecap:square;stroke-linejoin:miter;stroke-miterlimit:4;stroke-dasharray:none;stroke-opacity:1"
       id="path3787-7-82"
       d="M 204.94745,186.03125 H 172.93381" />
    <path
       style="fill:none;stroke:#000000;stroke-width:9.26577473;stroke-linecap:square;stroke-linejoin:miter;stroke-miterlimit:4;stroke-dasharray:none;stroke-opacity:1"
       id="path3787-7-4"
       d="M 418.12868,186.03125 H 386.11504" />
  </g>
  </g>
  <path
     d="m 452.46733,447.52131 c 19.30852,0 33.66336,-3.83989 51.50148,-11.23021 17.83823,-7.39031 34.19965,-18.32522 47.85074,-31.98034 13.65119,-13.65512 24.58141,-30.0197 31.96656,-47.86 C 591.17128,338.61045 595.00559,319.30847 595,300 c 0.006,-19.30848 -3.82872,-38.61045 -11.21389,-56.45076 -7.38515,-17.8403 -18.31537,-34.20489 -31.96656,-47.86 -13.65109,-13.65511 -30.01251,-24.59003 -47.85074,-31.98035 -17.83812,-7.39031 -32.19296,-11.23021 -51.50148,-11.23021 h -4.94604 c 0,-19.30847 -3.83989,-38.60934 -11.23021,-56.44751 C 428.90076,78.193 417.96591,61.83159 404.31075,48.18041 390.6556,34.52923 374.29102,23.59906 356.45076,16.21391 338.6104,8.82874 319.3085,4.99383 299.99998,5.00001 c -19.30852,-0.006 -38.61042,3.82873 -56.45078,11.2139 -17.84026,7.38515 -34.20484,18.31532 -47.86,31.9665 -13.65515,13.65118 -24.59,30.01259 -31.98032,47.85076 -7.39032,17.83817 -11.23021,37.13904 -11.23021,56.44751 h -4.94604 c -19.30852,0 -33.66336,3.83989 -51.501479,11.23021 -17.83823,7.39031 -34.19955,18.32521 -47.85074,31.98034 -13.65119,13.65511 -24.5814,30.0197 -31.9666,47.86 C 8.8287112,261.38954 4.9938112,280.69152 5.0000112,300 c -0.01,19.30847 3.8287,38.61045 11.2137998,56.45076 7.3852,17.8403 18.31541,34.20488 31.9666,47.86001 13.65119,13.65511 30.01251,24.59002 47.85074,31.98033 17.838119,7.39032 32.192959,11.23021 51.501479,11.23021 h 4.94604 c 0,19.30847 3.83989,38.60934 11.23021,56.44751 7.39032,17.83817 18.32517,34.19958 31.98032,47.85076 13.65516,13.65118 30.01974,24.58136 47.86,31.96651 17.84036,7.38517 37.14226,11.22008 56.45078,11.2139 19.30852,0.006 38.61042,-3.82873 56.45078,-11.2139 17.84026,-7.38515 34.20484,-18.31533 47.85999,-31.96651 13.65516,-13.65118 24.59001,-30.01259 31.98033,-47.85076 7.39032,-17.83817 11.23021,-37.13904 11.23021,-56.44751 z"
     id="Unknown Frame"
     style="fill:none;fill-opacity:1;stroke:#ffd300;stroke-width:10;stroke-linecap:butt;stroke-linejoin:miter;stroke-miterlimit:4;stroke-dasharray:none;stroke-opacity:1" />>
</svg>
