<?xml version="1.0" encoding="UTF-8" standalone="no"?>
<svg
   xmlns="http://www.w3.org/2000/svg"
   width="600"
   height="400"
   id="NATO Map Symbol">
  <path
     id="Friendly Fill"
     d="M 5,5 H 595 V 395 H 5 Z"
     style="fill:#7de1ff;fill-opacity:1;stroke:#0000ff;stroke-width:5;stroke-linejoin:miter;stroke-miterlimit:4" />
  <path
     d="M 94.999997,4.85482 V 395.14518"
     id="path3885"
     style="fill:none;stroke:#000000;stroke-width:10;stroke-linecap:butt;stroke-linejoin:miter;stroke-miterlimit:4" />
  <path
     style="fill:none;fill-rule:evenodd;stroke:#000000;stroke-width:10;stroke-linecap:butt;stroke-linejoin:miter;stroke-miterlimit:4"
     d="M 5,395 300,11 595,395"
     id="path816" />
  <g
     transform="matrix(0.85896487,0,0,0.85896487,47.998802,73.733712)"
     id="g3790"
     style="stroke-width:11.64192009;stroke-miterlimit:4;stroke-dasharray:none">
  <path
       d="m 349.34937,322.58035 a 32.176918,32.176918 0 1 1 -64.35383,0 32.176918,32.176918 0 1 1 64.35383,0 z"
       transform="matrix(1.134536,0,0,1.134536,-66.465817,-48.265756)"
       id="path2995"
       style="fill:none;stroke:#000000;stroke-width:10.26139259;stroke-linecap:round;stroke-linejoin:miter;stroke-miterlimit:4" />
  <path
       d="m 349.34937,322.58035 a 32.176918,32.176918 0 1 1 -64.35383,0 32.176918,32.176918 0 1 1 64.35383,0 z"
       transform="matrix(1.134536,0,0,1.134536,58.185957,-48.265756)"
       id="path2995-1"
       style="fill:none;stroke:#000000;stroke-width:10.26139259;stroke-linecap:round;stroke-linejoin:miter;stroke-miterlimit:4" />
  <path
       d="m 349.34937,322.58035 a 32.176918,32.176918 0 1 1 -64.35383,0 32.176918,32.176918 0 1 1 64.35383,0 z"
       transform="matrix(1.134536,0,0,1.134536,-191.11755,-48.265756)"
       id="path2995-7"
       style="fill:none;stroke:#000000;stroke-width:10.26139259;stroke-linecap:round;stroke-linejoin:miter;stroke-miterlimit:4" />
  </g>
  <path
     d="m 210.81531,298.27649 c -54.27662,0 -98.2765,-43.99988 -98.2765,-98.2765 0,-54.2766 43.99988,-98.27649 98.2765,-98.27649 h 178.36938 c 54.27662,0 98.2765,43.99989 98.2765,98.27649 0,54.27662 -43.99988,98.2765 -98.2765,98.2765 z"
     id="path2988"
     style="color:#000000;display:inline;overflow:visible;visibility:visible;fill:none;stroke:#000000;stroke-width:10;stroke-linecap:round;stroke-linejoin:miter;stroke-miterlimit:4;stroke-dasharray:none;stroke-dashoffset:0;stroke-opacity:1;marker:none;enable-background:accumulate" />
  <path
     id="Friendly Frame"
     d="M 5,5 H 595 V 395 H 5 Z"
     style="fill:none;stroke:#000000;stroke-width:10;stroke-linejoin:miter;stroke-miterlimit:4" />
</svg>
